<svg viewBox="0 0 100 100" xmlns="http://www.w3.org/2000/svg" role="img" aria-label="Bardcast seal: a disc of bone wax pressed with a voice, the imprint facing in">
  <!-- Generated from seal("bardcast", { bone: true, bars: 24 }) in packages/brand/src/marks.ts.
       Colors are literals on purpose — this file must render outside any CSS context. -->
  <path d="M91.57 46.75Q92.05 50.00 91.78 53.29Q91.52 56.58 90.64 59.75Q89.76 62.92 88.65 66.02Q87.53 69.12 85.91 72.02Q84.30 74.92 83.06 78.37Q81.82 81.82 79.49 84.60Q77.15 87.37 74.29 89.71Q71.42 92.04 67.65 92.38Q63.88 92.73 60.33 92.74Q56.77 92.76 53.39 92.94Q50.00 93.13 46.60 93.03Q43.20 92.93 40.05 91.63Q36.89 90.34 34.06 88.59Q31.23 86.84 28.54 85.04Q25.85 83.25 23.41 81.13Q20.98 79.02 18.04 77.19Q15.10 75.36 13.07 72.60Q11.04 69.85 9.33 66.81Q7.62 63.77 6.73 60.38Q5.84 56.99 6.11 53.50Q6.38 50.00 6.47 46.56Q6.56 43.12 7.17 39.70Q7.78 36.28 9.31 33.17Q10.85 30.05 12.89 27.29Q14.93 24.52 18.00 22.80Q21.08 21.08 23.59 19.09Q26.10 17.11 28.64 15.09Q31.19 13.08 33.93 11.02Q36.66 8.96 39.84 7.44Q43.02 5.93 46.51 4.37Q50.00 2.82 53.51 4.22Q57.03 5.63 60.30 6.92Q63.58 8.22 66.90 9.27Q70.22 10.32 73.24 12.08Q76.27 13.84 79.22 15.84Q82.17 17.83 83.47 21.28Q84.78 24.73 85.80 27.99Q86.82 31.24 88.22 34.18Q89.62 37.13 90.36 40.31Q91.10 43.49 91.57 46.75Z" fill="#D9CFB8"/>
  <circle cx="50" cy="50" r="35" fill="#CDC1A6"/>
  <circle cx="50" cy="50" r="35" fill="none" stroke="#6E6450" stroke-width="3"/>
  <path d="M50.00 17.00L50.00 26.72M58.54 18.12L57.21 23.10M66.50 21.42L65.60 22.98M73.33 26.67L70.34 29.66M78.58 33.50L77.02 34.40M81.88 41.46L75.51 43.17M83.00 50.00L77.21 50.00M81.88 58.54L73.09 56.19M78.58 66.50L72.38 62.92M73.33 73.33L69.14 69.14M66.50 78.58L62.76 72.10M58.54 81.88L57.06 76.33M50.00 83.00L50.00 73.91M41.46 81.88L45.63 66.31M33.50 78.58L41.85 64.12M26.67 73.33L39.20 60.80M21.42 66.50L35.03 58.64M18.12 58.54L35.24 53.95M17.00 50.00L26.50 50.00M18.12 41.46L25.79 43.51M21.42 33.50L32.17 39.71M26.67 26.67L34.06 34.06M33.50 21.42L40.42 33.41M41.46 18.12L43.91 27.28" stroke="#6E6450" stroke-width="3.5" stroke-linecap="round" fill="none"/>
  <path d="M17 34 A38 38 0 0 1 33 15" stroke="rgba(255,255,255,0.3)" stroke-width="3" stroke-linecap="round" fill="none"/>
</svg>
